<?xml version="1.0" encoding="UTF-8"?>
<svg id="Ebene_1" data-name="Ebene 1" xmlns="http://www.w3.org/2000/svg" viewBox="0 0 623.62 248.03">
  <path d="M160,40.59h-19.3l-5.25,15.02h-6.79L146.48,5.67h8.23l17.53,49.94h-7.13l-5.12-15.02Zm-1.81-5.35l-7.69-22.71-8.2,22.71h15.89Z"/>
  <path d="M176.75,55.61V5.67h20.27c4.64,0,8.25,1.17,10.84,3.51,2.63,2.36,3.95,5.43,3.95,9.2,0,5.13-2.31,8.74-6.92,10.84,2.25,.87,4,1.85,5.25,2.94,2.59,2.25,3.88,5.33,3.88,9.23s-1.28,7.35-3.85,10.07c-2.63,2.77-6.28,4.15-10.94,4.15h-22.48Zm6.36-28.43h12.34c2.5,0,4.35-.27,5.55-.8,2.94-1.25,4.42-3.62,4.42-7.13,0-2.77-.91-4.84-2.74-6.22-.91-.67-1.87-1.11-2.88-1.34-1.25-.27-2.7-.4-4.35-.4h-12.34v15.89Zm0,22.81h15.52c2.99,0,5.23-.79,6.72-2.38,1.54-1.63,2.31-3.7,2.31-6.22s-.77-4.59-2.31-6.22c-1.49-1.58-3.74-2.38-6.72-2.38h-15.52v17.19Z"/>
  <path d="M238.53,11.29V55.61h-6.36V11.29h-16.46V5.67h39.17v5.62h-16.36Z"/>
  <path d="M266.24,32.86v17.13h29.47v5.62h-35.83V5.67h34.59v5.62h-28.23v15.96h27.23v5.62h-27.23Z"/>
  <path d="M308.91,5.67V55.61h-6.46V5.67h6.46Z"/>
  <path d="M324.49,5.67V49.99h24.69v5.62h-31.04V5.67h6.36Z"/>
  <path d="M385.16,5.67h6.36V40.72c0,5.33-1.95,9.49-5.85,12.48-3.48,2.65-7.95,3.98-13.41,3.98s-9.96-1.33-13.41-3.98c-3.79-2.92-5.69-7.08-5.69-12.48V5.67h6.36V40.72c0,3.66,1.21,6.39,3.65,8.2,2.36,1.76,5.4,2.64,9.1,2.64s6.71-.88,9.1-2.64c2.54-1.87,3.81-4.6,3.81-8.2V5.67Z"/>
  <path d="M439.4,5.67V55.61h-7.16l-25.86-40.51V55.61h-6.02V5.67h6.92l26.09,40.81V5.67h6.02Z"/>
  <path d="M491.5,29.25v26.63h-4.01l-1.61-6.62c-4.77,5.29-10.46,7.93-17.06,7.93-6.22,0-11.42-2.07-15.59-6.22-2.47-2.48-4.33-5.51-5.55-9.1-1.16-3.43-1.74-7.01-1.74-10.74,0-6.31,1.48-11.74,4.45-16.29,4.33-6.67,10.84-10,19.54-10,7.23,0,12.78,2.23,16.66,6.69,2.16,2.5,3.58,5.6,4.25,9.3h-6.52c-.6-2.79-1.91-5.05-3.91-6.79-2.74-2.39-6.27-3.58-10.57-3.58-4.88,0-8.88,1.58-11.98,4.75-1.72,1.76-3.03,3.9-3.95,6.42-1.07,2.9-1.61,5.95-1.61,9.17,0,4.37,.89,8.33,2.68,11.88,1.67,3.32,4.07,5.72,7.19,7.19,2.43,1.14,5.11,1.71,8.03,1.71,4.66,0,8.45-1.48,11.37-4.45,2.88-2.97,4.32-6.6,4.32-10.91v-1.34h-15.22v-5.62h20.84Z"/>
  <path d="M93.05,117.61h-6.69l-14.22-41.88v41.88h-6.02v-49.94h8.8l14.85,43.49,14.52-43.49h8.83v49.94h-6.02v-41.88l-14.05,41.88Z"/>
  <path d="M128.69,94.86v17.13h29.47v5.62h-35.83v-49.94h34.59v5.62h-28.23v15.96h27.23v5.62h-27.23Z"/>
  <path d="M164.43,117.61v-49.94h19.23c5.93,0,10.67,1.97,14.22,5.92,4.08,4.53,6.12,10.87,6.12,19.03s-2.04,14.54-6.12,19.07c-3.57,3.95-8.31,5.92-14.22,5.92h-19.23Zm6.36-5.62h11.77c4.93,0,8.7-1.67,11.31-5.02,2.52-3.28,3.78-8.05,3.78-14.32s-1.26-11.09-3.78-14.35c-2.61-3.35-6.38-5.02-11.31-5.02h-11.77v38.7Z"/>
  <path d="M218.33,67.67v49.94h-6.46v-49.94h6.46Z"/>
  <path d="M234.25,94.86v17.13h29.47v5.62h-35.83v-49.94h34.59v5.62h-28.23v15.96h27.23v5.62h-27.23Z"/>
  <path d="M308.62,67.67v49.94h-7.16l-25.86-40.51v40.51h-6.02v-49.94h6.92l26.09,40.81v-40.81h6.02Z"/>
  <path d="M317.91,117.61v-49.94h19.24c5.93,0,10.67,1.97,14.22,5.92,4.08,4.53,6.12,10.87,6.12,19.03s-2.04,14.54-6.12,19.07c-3.57,3.95-8.31,5.92-14.22,5.92h-19.24Zm6.36-5.62h11.77c4.93,0,8.7-1.67,11.31-5.02,2.52-3.28,3.78-8.05,3.78-14.32s-1.26-11.09-3.78-14.35c-2.61-3.35-6.38-5.02-11.31-5.02h-11.77v38.7Z"/>
  <path d="M371.46,94.86v17.13h29.47v5.62h-35.83v-49.94h34.59v5.62h-28.23v15.96h27.23v5.62h-27.23Z"/>
  <path d="M442.14,82.32h-6.02c-.07-2.85-.91-5.12-2.54-6.79-2.19-2.23-5.5-3.35-9.94-3.35-3.39,0-6.08,.76-8.06,2.27-2.07,1.58-3.11,3.64-3.11,6.15,0,2.1,.75,3.73,2.24,4.88,1.18,.94,3.18,1.77,5.99,2.51l12.48,3.38c3.43,.92,6.04,2.42,7.83,4.52,1.9,2.23,2.84,4.9,2.84,8,0,2.92-.87,5.68-2.61,8.26-3.12,4.68-8.75,7.02-16.89,7.02s-13.38-2.38-16.86-7.13c-1.85-2.56-2.82-6.01-2.91-10.34h6.02c-.02,3.01,.85,5.55,2.61,7.63,2.36,2.81,6.21,4.21,11.54,4.21,4.08,0,7.14-.7,9.17-2.11,1.12-.76,2.01-1.82,2.68-3.18,.6-1.2,.9-2.45,.9-3.75,0-1.92-.75-3.56-2.24-4.92-1.43-1.27-3.75-2.33-6.96-3.18l-12.44-3.24c-6.51-1.72-9.77-5.63-9.77-11.74,0-4.35,1.52-7.86,4.55-10.54,3.1-2.72,7.49-4.08,13.18-4.08,7.29,0,12.5,2.15,15.62,6.46,1.81,2.5,2.71,5.21,2.71,8.13v.9Z"/>
  <path d="M457.61,67.67v49.94h-6.46v-49.94h6.46Z"/>
  <path d="M510.07,91.25v26.63h-4.01l-1.61-6.62c-4.77,5.29-10.46,7.93-17.06,7.93-6.22,0-11.42-2.07-15.59-6.22-2.47-2.48-4.33-5.51-5.55-9.1-1.16-3.43-1.74-7.01-1.74-10.74,0-6.31,1.48-11.74,4.45-16.29,4.33-6.67,10.84-10,19.54-10,7.23,0,12.78,2.23,16.66,6.69,2.16,2.5,3.58,5.6,4.25,9.3h-6.52c-.6-2.79-1.91-5.05-3.91-6.79-2.74-2.39-6.27-3.58-10.57-3.58-4.88,0-8.88,1.58-11.98,4.75-1.72,1.76-3.03,3.9-3.95,6.42-1.07,2.9-1.61,5.95-1.61,9.17,0,4.37,.89,8.33,2.68,11.88,1.67,3.32,4.07,5.72,7.19,7.19,2.43,1.14,5.11,1.71,8.03,1.71,4.66,0,8.45-1.48,11.37-4.45,2.88-2.97,4.32-6.6,4.32-10.91v-1.34h-15.22v-5.62h20.84Z"/>
  <path d="M557.51,67.67v49.94h-7.16l-25.86-40.51v40.51h-6.02v-49.94h6.92l26.09,40.81v-40.81h6.02Z"/>
  <path d="M157.12,129.67h6.36v35.06c0,5.33-1.95,9.49-5.85,12.48-3.48,2.65-7.95,3.98-13.41,3.98s-9.96-1.33-13.41-3.98c-3.79-2.92-5.69-7.08-5.69-12.48v-35.06h6.36v35.06c0,3.66,1.22,6.39,3.65,8.2,2.36,1.76,5.4,2.64,9.1,2.64s6.71-.88,9.1-2.64c2.54-1.87,3.81-4.6,3.81-8.2v-35.06Z"/>
  <path d="M211.36,129.67v49.94h-7.16l-25.86-40.51v40.51h-6.02v-49.94h6.92l26.09,40.81v-40.81h6.02Z"/>
  <path d="M220.65,179.61v-49.94h19.23c5.93,0,10.67,1.97,14.22,5.92,4.08,4.53,6.12,10.87,6.12,19.03s-2.04,14.54-6.12,19.07c-3.57,3.95-8.31,5.92-14.22,5.92h-19.23Zm6.36-5.62h11.77c4.93,0,8.7-1.67,11.31-5.02,2.52-3.28,3.78-8.05,3.78-14.32s-1.26-11.09-3.78-14.35c-2.61-3.35-6.38-5.02-11.31-5.02h-11.77v38.7Z"/>
  <path d="M295.78,158.1v21.51h-6.36v-49.94h22.98c4.55,0,8.12,.98,10.71,2.94,3.03,2.34,4.55,5.82,4.55,10.44,0,2.68-.48,4.81-1.44,6.39-1.34,2.21-3.5,4.05-6.49,5.52,2.19,.85,3.85,2.04,4.98,3.58,.74,1.05,1.23,2.4,1.47,4.05,.18,1,.3,2.8,.37,5.39,.09,3.72,.36,6.17,.8,7.33,.49,1.16,1.23,2.06,2.21,2.71v1.61h-7.73c-.98-2.16-1.47-4.87-1.47-8.13l.1-4.48c0-3.01-.62-5.22-1.87-6.62-1.32-1.52-3.45-2.27-6.39-2.27h-16.43Zm0-5.62h15.39c3.35,0,5.77-.63,7.26-1.91,1.72-1.47,2.58-3.7,2.58-6.69s-.86-5.22-2.58-6.69c-1.49-1.27-3.91-1.91-7.26-1.91h-15.39v17.19Z"/>
  <path d="M364.41,164.59h-19.3l-5.25,15.02h-6.79l17.83-49.94h8.23l17.53,49.94h-7.12l-5.12-15.02Zm-1.81-5.35l-7.69-22.71-8.2,22.71h15.89Z"/>
  <path d="M411.4,129.67h6.36v35.06c0,5.33-1.95,9.49-5.85,12.48-3.48,2.65-7.95,3.98-13.41,3.98s-9.96-1.33-13.41-3.98c-3.79-2.92-5.69-7.08-5.69-12.48v-35.06h6.36v35.06c0,3.66,1.21,6.39,3.65,8.2,2.36,1.76,5.4,2.64,9.1,2.64s6.71-.88,9.1-2.64c2.54-1.87,3.81-4.6,3.81-8.2v-35.06Z"/>
  <path d="M453.5,179.61h-6.69l-14.22-41.88v41.88h-6.02v-49.94h8.8l14.85,43.49,14.52-43.49h8.83v49.94h-6.02v-41.88l-14.05,41.88Z"/>
  <path d="M523.78,155.23v4.92h-38.77v-4.92h38.77Z"/>
  <path d="M154.14,215.25v26.63h-4.01l-1.61-6.62c-4.77,5.29-10.46,7.93-17.06,7.93-6.22,0-11.42-2.07-15.59-6.22-2.48-2.48-4.33-5.51-5.55-9.1-1.16-3.43-1.74-7.01-1.74-10.74,0-6.31,1.48-11.74,4.45-16.29,4.33-6.67,10.84-10,19.54-10,7.23,0,12.78,2.23,16.66,6.69,2.16,2.5,3.58,5.6,4.25,9.3h-6.52c-.6-2.79-1.91-5.05-3.91-6.79-2.74-2.39-6.27-3.58-10.57-3.58-4.88,0-8.88,1.58-11.98,4.75-1.72,1.76-3.03,3.9-3.95,6.42-1.07,2.9-1.61,5.95-1.61,9.17,0,4.37,.89,8.33,2.68,11.88,1.67,3.32,4.07,5.72,7.19,7.19,2.43,1.14,5.11,1.71,8.03,1.71,4.66,0,8.45-1.48,11.37-4.45,2.88-2.97,4.31-6.6,4.31-10.91v-1.34h-15.22v-5.62h20.84Z"/>
  <path d="M169.35,218.86v17.13h29.47v5.62h-35.83v-49.94h34.59v5.62h-28.23v15.96h27.23v5.62h-27.23Z"/>
  <path d="M240.03,206.32h-6.02c-.07-2.85-.91-5.12-2.54-6.79-2.19-2.23-5.5-3.34-9.94-3.34-3.39,0-6.08,.76-8.06,2.27-2.07,1.58-3.11,3.64-3.11,6.16,0,2.1,.75,3.72,2.24,4.88,1.18,.94,3.18,1.77,5.99,2.51l12.48,3.38c3.43,.92,6.04,2.42,7.83,4.52,1.9,2.23,2.84,4.9,2.84,8,0,2.92-.87,5.68-2.61,8.26-3.12,4.68-8.75,7.03-16.89,7.03s-13.38-2.38-16.86-7.12c-1.85-2.56-2.82-6.01-2.91-10.34h6.02c-.02,3.01,.85,5.55,2.61,7.63,2.36,2.81,6.21,4.21,11.54,4.21,4.08,0,7.14-.7,9.17-2.11,1.11-.76,2.01-1.82,2.68-3.18,.6-1.2,.9-2.45,.9-3.75,0-1.92-.75-3.56-2.24-4.92-1.43-1.27-3.75-2.33-6.96-3.18l-12.44-3.25c-6.51-1.72-9.77-5.63-9.77-11.74,0-4.35,1.52-7.86,4.55-10.54,3.1-2.72,7.49-4.08,13.18-4.08,7.29,0,12.5,2.15,15.62,6.46,1.81,2.5,2.71,5.21,2.71,8.13v.9Z"/>
  <path d="M266.28,197.29v44.32h-6.36v-44.32h-16.46v-5.62h39.17v5.62h-16.36Z"/>
  <path d="M308.25,226.59h-19.3l-5.25,15.02h-6.79l17.83-49.94h8.23l17.53,49.94h-7.12l-5.12-15.02Zm-1.81-5.35l-7.69-22.71-8.2,22.71h15.89Z"/>
  <path d="M331.39,191.67v44.32h24.69v5.62h-31.04v-49.94h6.36Z"/>
  <path d="M372.89,197.29v44.32h-6.36v-44.32h-16.46v-5.62h39.17v5.62h-16.36Z"/>
  <path d="M426.11,191.67h6.36v35.06c0,5.33-1.95,9.49-5.85,12.48-3.48,2.65-7.95,3.98-13.41,3.98s-9.96-1.33-13.41-3.98c-3.79-2.92-5.69-7.08-5.69-12.48v-35.06h6.36v35.06c0,3.66,1.21,6.39,3.65,8.2,2.36,1.76,5.4,2.64,9.1,2.64s6.71-.88,9.1-2.64c2.54-1.87,3.81-4.6,3.81-8.2v-35.06Z"/>
  <path d="M480.34,191.67v49.94h-7.16l-25.86-40.51v40.51h-6.02v-49.94h6.92l26.09,40.81v-40.81h6.02Z"/>
  <path d="M532.45,215.25v26.63h-4.01l-1.61-6.62c-4.77,5.29-10.46,7.93-17.06,7.93-6.22,0-11.42-2.07-15.59-6.22-2.47-2.48-4.33-5.51-5.55-9.1-1.16-3.43-1.74-7.01-1.74-10.74,0-6.31,1.48-11.74,4.45-16.29,4.33-6.67,10.84-10,19.54-10,7.23,0,12.78,2.23,16.66,6.69,2.16,2.5,3.58,5.6,4.25,9.3h-6.52c-.6-2.79-1.91-5.05-3.91-6.79-2.74-2.39-6.27-3.58-10.57-3.58-4.88,0-8.88,1.58-11.98,4.75-1.72,1.76-3.03,3.9-3.95,6.42-1.07,2.9-1.61,5.95-1.61,9.17,0,4.37,.89,8.33,2.68,11.88,1.67,3.32,4.07,5.72,7.19,7.19,2.43,1.14,5.11,1.71,8.03,1.71,4.66,0,8.45-1.48,11.37-4.45,2.88-2.97,4.32-6.6,4.32-10.91v-1.34h-15.22v-5.62h20.84Z"/>
</svg>